# File created by Blade
# Date/Time:  Tue Sep 23 19:15:59 2014
# Frame Rate: 120.000 fps
#------------------------------------------------------
:FULLY-SPECIFIED
:DEGREES
1927
root 1.802810 32.515893 -7.340767 43.070976 -34.065370 -29.530201
Spine -32.348947 -19.306316 28.901590
Head 8.485202 -11.143157 -0.204943
LeftShoulder 14.211592 34.372126 34.908130
LeftArm 86.969717 7.814148 -54.342181
LeftForeArm 22.737109 -0.000000 51.082932
LeftHand 48.834086 0.000000 1.362843
LeftHandThumb1 -26.253704 0.000000 33.147579
RightShoulder 6.574221 -43.615738 -23.515539
RightArm 68.764153 -4.305667 65.816286
RightForeArm 49.382226 -0.000000 88.227568
RightHand 14.485419 -0.000000 7.902633
RightHandThumb1 -24.326973 -0.000000 -32.862282
LeftUpLeg -40.154033 12.156982 14.225081
LeftLeg 32.622897 -0.000000 -0.000000
LeftFoot -17.670781 16.764428 6.126854
LeftToeBase 1.314366 -0.000000 -0.000000
RightUpLeg -161.907578 -7.361456 21.086841
RightLeg 98.556349 -0.000000 -0.000000
RightFoot 43.714704 -12.126214 7.794926
RightToeBase 46.662363 -0.000000 -0.000000
1928
root 1.784470 32.524773 -7.323077 43.253039 -34.288009 -29.692845
Spine -32.367261 -19.227021 28.910238
Head 8.383675 -10.972503 0.146879
LeftShoulder 14.114661 34.533640 35.071602
LeftArm 86.699241 8.072088 -54.452248
LeftForeArm 23.412954 -0.000000 52.073109
LeftHand 47.969398 -0.000000 2.192988
LeftHandThumb1 -26.253704 0.000000 33.147579
RightShoulder 6.519685 -43.613203 -23.265560
RightArm 68.714436 -3.946461 65.264433
RightForeArm 49.507598 -0.000000 88.309045
RightHand 14.506068 -0.000000 7.736578
RightHandThumb1 -24.326973 -0.000000 -32.862282
LeftUpLeg -40.017968 12.325054 14.195471
LeftLeg 32.474305 -0.000000 -0.000000
LeftFoot -17.563142 17.097318 6.527813
LeftToeBase 0.818355 -0.000000 -0.000000
RightUpLeg -161.981862 -7.258124 21.119475
RightLeg 98.936614 -0.000000 -0.000000
RightFoot 43.689278 -12.105854 7.768787
RightToeBase 46.667412 -0.000000 -0.000000
1929
root 1.771645 32.537181 -7.315323 43.571458 -34.454170 -29.851678
Spine -32.495496 -19.102885 28.960991
Head 8.229568 -10.867895 0.591584
LeftShoulder 13.955202 34.661093 35.213616
LeftArm 86.556268 8.416636 -54.811954
LeftForeArm 24.849523 -0.000000 53.021821
LeftHand 47.130357 -0.000000 2.869043
LeftHandThumb1 -26.253704 0.000000 33.147579
RightShoulder 6.471933 -43.644236 -22.972276
RightArm 68.669755 -3.528758 64.742387
RightForeArm 49.676671 0.000000 88.490912
RightHand 14.351843 -0.000000 7.700133
RightHandThumb1 -24.326973 -0.000000 -32.862282
LeftUpLeg -40.022159 12.407809 14.212292
LeftLeg 32.260704 -0.000000 -0.000000
LeftFoot -17.410061 17.396889 6.907012
LeftToeBase 0.566699 -0.000000 -0.000000
RightUpLeg -162.168927 -7.142564 21.176767
RightLeg 99.331541 -0.000000 -0.000000
RightFoot 43.696567 -11.952217 7.613373
RightToeBase 46.708142 -0.000000 -0.000000
1930
root 1.773726 32.553573 -7.313481 44.352116 -34.678752 -30.099273
Spine -32.952166 -18.678616 29.155199
Head 8.018256 -10.803777 0.972432
LeftShoulder 13.692834 34.715293 35.270305
LeftArm 86.554705 8.902967 -55.337529
LeftForeArm 25.410802 -0.000000 53.626346
LeftHand 46.825759 -0.000000 2.585859
LeftHandThumb1 -26.253704 0.000000 33.147579
RightShoulder 6.480666 -43.630752 -22.790405
RightArm 68.567614 -3.151687 64.351886
RightForeArm 49.665859 0.000000 88.737785
RightHand 14.348912 -0.000000 7.688181
RightHandThumb1 -24.326973 -0.000000 -32.862282
LeftUpLeg -40.403717 12.535930 14.207464
LeftLeg 32.024980 -0.000000 -0.000000
LeftFoot -17.200609 17.813242 7.237702
LeftToeBase 0.372754 -0.000000 -0.000000
RightUpLeg -162.660778 -6.820943 21.262288
RightLeg 99.681515 -0.000000 -0.000000
RightFoot 43.811600 -11.799036 7.572072
RightToeBase 46.695142 -0.000000 -0.000000
1931
root 1.775237 32.560839 -7.313232 44.842072 -34.905516 -30.156267
Spine -33.259644 -18.416559 29.133109
Head 7.788727 -10.763349 1.411420
LeftShoulder 13.464316 34.638514 35.426926
LeftArm 86.598562 9.529254 -55.924306
LeftForeArm 25.481981 -0.000000 53.904556
LeftHand 46.473544 -0.000000 2.596776
LeftHandThumb1 -26.253704 0.000000 33.147579
RightShoulder 6.597903 -43.638549 -22.653172
RightArm 68.409765 -2.713291 64.114575
RightForeArm 49.578974 -0.000000 89.074504
RightHand 14.288021 -0.000000 7.774917
RightHandThumb1 -24.326973 -0.000000 -32.862282
LeftUpLeg -40.646912 12.414446 14.174199
LeftLeg 31.832952 -0.000000 -0.000000
LeftFoot -16.987502 18.247578 7.485587
LeftToeBase 0.372180 -0.000000 -0.000000
RightUpLeg -163.105469 -6.679042 21.229088
RightLeg 100.106870 -0.000000 -0.000000
RightFoot 44.027885 -11.613138 7.650812
RightToeBase 46.588949 -0.000000 -0.000000
1932
root 1.766345 32.573200 -7.314105 45.267784 -35.165699 -30.421446
Spine -33.341310 -18.125912 29.123712
Head 7.664434 -10.701285 1.825856
LeftShoulder 13.286372 34.551222 35.616733
LeftArm 86.711152 10.203329 -56.597687
LeftForeArm 25.116516 0.000000 53.708600
LeftHand 46.616171 0.000000 2.394556
LeftHandThumb1 -26.253704 0.000000 33.147579
RightShoulder 6.789020 -43.833218 -22.521710
RightArm 68.415556 -2.169563 63.914860
RightForeArm 49.599534 -0.000000 89.270082
RightHand 14.330290 0.000000 7.869020
RightHandThumb1 -24.326973 -0.000000 -32.862282
LeftUpLeg -40.696378 12.459704 14.286639
LeftLeg 31.724218 -0.000000 -0.000000
LeftFoot -16.828743 18.611565 7.704757
LeftToeBase 0.238109 -0.000000 -0.000000
RightUpLeg -163.252968 -6.521325 21.176382
RightLeg 100.552216 -0.000000 -0.000000
RightFoot 44.194101 -11.582765 7.865348
RightToeBase 46.464655 -0.000000 -0.000000
1933
root 1.756648 32.587821 -7.310542 45.762324 -35.327300 -30.723964
Spine -33.517136 -17.793124 29.245161
Head 7.609852 -10.615585 2.125659
LeftShoulder 13.180373 34.491220 35.874269
LeftArm 86.843490 10.845602 -57.043124
LeftForeArm 24.920120 -0.000000 53.490397
LeftHand 46.433835 -0.000000 3.026355
LeftHandThumb1 -26.253704 0.000000 33.147579
RightShoulder 7.022359 -43.989464 -22.465669
RightArm 68.368172 -1.600937 63.840312
RightForeArm 49.812522 -0.000000 89.338745
RightHand 14.068106 -0.000000 8.401788
RightHandThumb1 -24.326973 -0.000000 -32.862282
LeftUpLeg -40.834579 12.442338 14.493368
LeftLeg 31.684031 -0.000000 -0.000000
LeftFoot -16.680891 18.927031 7.820021
LeftToeBase 0.275679 -0.000000 -0.000000
RightUpLeg -163.470255 -6.428705 21.230096
RightLeg 101.065179 -0.000000 -0.000000
RightFoot 44.384442 -11.463645 7.947523
RightToeBase 46.337098 -0.000000 -0.000000
1934
root 1.743505 32.606308 -7.308609 46.314108 -35.417820 -31.164276
Spine -33.655091 -17.387801 29.451272
Head 7.608573 -10.559495 2.415389
LeftShoulder 13.259295 34.404477 36.288116
LeftArm 86.867429 11.495148 -57.706047
LeftForeArm 24.088215 -0.000000 53.211953
LeftHand 46.713617 0.000000 2.934619
LeftHandThumb1 -26.253704 0.000000 33.147579
RightShoulder 7.174927 -44.173368 -22.309275
RightArm 68.400648 -0.962533 63.783643
RightForeArm 50.107462 0.000000 89.159098
RightHand 13.828354 0.000000 9.050172
RightHandThumb1 -24.326973 -0.000000 -32.862282
LeftUpLeg -40.987218 12.520813 14.816082
LeftLeg 31.719513 -0.000000 -0.000000
LeftFoot -16.456141 19.328154 8.067300
LeftToeBase 0.191269 -0.000000 -0.000000
RightUpLeg -163.591020 -6.354082 21.404185
RightLeg 101.626141 -0.000000 -0.000000
RightFoot 44.395772 -11.259091 7.970109
RightToeBase 46.394387 -0.000000 -0.000000
1935
root 1.728886 32.624920 -7.305779 46.848979 -35.506389 -31.608945
Spine -33.774340 -16.939837 29.610410
Head 7.673576 -10.547952 2.720947
LeftShoulder 13.384129 34.366484 36.735632
LeftArm 86.976593 12.017283 -57.986321
LeftForeArm 23.407072 -0.000000 52.986367
LeftHand 46.651809 -0.000000 3.541129
LeftHandThumb1 -26.253704 0.000000 33.147579
RightShoulder 7.274434 -44.309398 -22.072052
RightArm 68.391376 -0.274448 63.837991
RightForeArm 50.621346 -0.000000 88.802258
RightHand 13.343864 -0.000000 10.178249
RightHandThumb1 -24.326973 -0.000000 -32.862282
LeftUpLeg -41.135603 12.645765 15.130075
LeftLeg 31.793896 -0.000000 -0.000000
LeftFoot -16.389160 19.547216 8.113159
LeftToeBase 0.130966 -0.000000 -0.000000
RightUpLeg -163.670684 -6.379300 21.481569
RightLeg 102.209840 -0.000000 -0.000000
RightFoot 44.422913 -11.041805 7.983263
RightToeBase 46.241372 -0.000000 -0.000000
1936
root 1.715081 32.647260 -7.310668 47.474789 -35.493852 -32.164239
Spine -33.893663 -16.472180 29.889834
Head 7.722553 -10.512759 3.079491
LeftShoulder 13.631321 34.412181 37.340138
LeftArm 87.048287 12.498399 -58.539760
LeftForeArm 22.635090 -0.000000 52.809285
LeftHand 46.955922 0.000000 3.472048
LeftHandThumb1 -26.253704 0.000000 33.147579
RightShoulder 7.317199 -44.472622 -21.745292
RightArm 68.519834 0.493761 63.941726
RightForeArm 51.315961 -0.000000 88.182185
RightHand 12.765323 -0.000000 11.720954
RightHandThumb1 -24.326973 -0.000000 -32.862282
LeftUpLeg -41.333844 12.780313 15.572091
LeftLeg 31.886851 -0.000000 -0.000000
LeftFoot -16.351987 19.808447 8.171185
LeftToeBase 0.143197 -0.000000 -0.000000
RightUpLeg -163.723051 -6.441759 21.682562
RightLeg 102.805769 -0.000000 -0.000000
RightFoot 44.485342 -10.659557 7.831603
RightToeBase 46.255195 -0.000000 -0.000000
1937
root 1.693499 32.667928 -7.311069 47.999122 -35.498838 -32.738335
Spine -33.910645 -16.020938 30.113955
Head 7.811463 -10.482777 3.462053
LeftShoulder 13.862310 34.525189 37.951406
LeftArm 87.200490 12.929915 -58.830171
LeftForeArm 21.857536 -0.000000 52.707831
LeftHand 46.806881 -0.000000 3.783001
LeftHandThumb1 -26.253704 0.000000 33.147579
RightShoulder 7.305589 -44.581342 -21.296833
RightArm 68.671196 1.302152 63.988851
RightForeArm 52.281762 -0.000000 87.356088
RightHand 12.023164 -0.000000 13.481110
RightHandThumb1 -24.326973 -0.000000 -32.862282
LeftUpLeg -41.367568 12.972221 16.005338
LeftLeg 31.916013 -0.000000 -0.000000
LeftFoot -16.387580 20.083179 8.259624
LeftToeBase 0.366284 -0.000000 -0.000000
RightUpLeg -163.638553 -6.588108 21.792037
RightLeg 103.494147 -0.000000 -0.000000
RightFoot 44.391772 -10.305766 7.803265
RightToeBase 46.436296 -0.000000 -0.000000
1938
root 1.676929 32.688550 -7.317486 48.561843 -35.479776 -33.268397
Spine -33.980969 -15.537597 30.308705
Head 7.897934 -10.513585 3.896098
LeftShoulder 14.093146 34.465298 38.575146
LeftArm 87.223227 13.454311 -59.275450
LeftForeArm 20.821932 0.000000 52.528144
LeftHand 47.179623 -0.000000 3.394778
LeftHandThumb1 -26.253704 0.000000 33.147579
RightShoulder 7.200770 -44.548193 -20.693177
RightArm 68.767842 2.066157 63.991924
RightForeArm 53.277469 0.000000 86.316959
RightHand 11.361620 -0.000000 15.242792
RightHandThumb1 -24.326973 -0.000000 -32.862282
LeftUpLeg -41.474518 13.188387 16.394873
LeftLeg 31.929572 -0.000000 -0.000000
LeftFoot -16.449074 20.308312 8.366897
LeftToeBase 0.302139 -0.000000 -0.000000
RightUpLeg -163.600163 -6.811381 21.831118
RightLeg 104.226502 -0.000000 -0.000000
RightFoot 44.322022 -9.919779 7.680463
RightToeBase 46.463577 -0.000000 -0.000000
